<svg width="216" height="68" viewBox="0 0 216 68" fill="none" xmlns="http://www.w3.org/2000/svg">
<rect width="215.685" height="67.7151" rx="33.8576" fill="#022183"/>
<path d="M52.6198 41.8644C51.2284 41.8644 50.0127 41.5482 48.9727 40.9158C47.9327 40.2833 47.1245 39.3979 46.5483 38.2595C45.9721 37.1211 45.684 35.7929 45.684 34.275C45.684 32.7712 45.9721 31.4431 46.5483 30.2906C47.1386 29.1381 47.9748 28.2386 49.057 27.5921C50.1533 26.9316 51.4463 26.6013 52.9361 26.6013C54.6085 26.6013 56.0069 27.0089 57.1313 27.824C58.2557 28.6251 58.9795 29.7425 59.3027 31.176H56.8994C56.6886 30.3609 56.2459 29.7214 55.5713 29.2576C54.8966 28.7797 54.0112 28.5408 52.915 28.5408C51.8749 28.5408 50.9684 28.7727 50.1954 29.2365C49.4365 29.7003 48.8532 30.3609 48.4457 31.2182C48.0381 32.0755 47.8343 33.0945 47.8343 34.275C47.8343 35.4697 48.0381 36.4956 48.4457 37.353C48.8532 38.2103 49.4295 38.8638 50.1744 39.3135C50.9192 39.7633 51.7766 39.9882 52.7463 39.9882C54.2361 39.9882 55.3534 39.5595 56.0983 38.7022C56.8572 37.8449 57.3 36.6994 57.4264 35.2659H53.3577V33.6426H59.5557V41.6115H57.6373L57.4475 39.3557C57.1102 39.9038 56.7167 40.3676 56.267 40.7471C55.8313 41.1125 55.3183 41.3936 54.728 41.5904C54.1377 41.7731 53.435 41.8644 52.6198 41.8644ZM65.9787 41.8644C64.9668 41.8644 64.0673 41.6325 63.2802 41.1687C62.4932 40.7049 61.8748 40.0584 61.425 39.2292C60.9894 38.4 60.7715 37.4373 60.7715 36.341C60.7715 35.2167 60.9894 34.2399 61.425 33.4107C61.8748 32.5674 62.4932 31.9139 63.2802 31.4501C64.0673 30.9722 64.9808 30.7333 66.0209 30.7333C67.0609 30.7333 67.9533 30.9652 68.6982 31.429C69.4431 31.8928 70.0193 32.5112 70.4269 33.2842C70.8345 34.0431 71.0383 34.8864 71.0383 35.814C71.0383 35.9545 71.0313 36.1091 71.0172 36.2778C71.0172 36.4324 71.0102 36.6081 70.9961 36.8048H62.3105V35.308H68.9301C68.888 34.4226 68.5928 33.7339 68.0447 33.242C67.4966 32.7361 66.8149 32.4831 65.9998 32.4831C65.4235 32.4831 64.8965 32.6166 64.4186 32.8836C63.9408 33.1366 63.5543 33.5161 63.2592 34.022C62.9781 34.514 62.8375 35.1394 62.8375 35.8983V36.4886C62.8375 37.2757 62.9781 37.9432 63.2592 38.4914C63.5543 39.0254 63.9408 39.433 64.4186 39.7141C64.8965 39.9811 65.4165 40.1147 65.9787 40.1147C66.6533 40.1147 67.2085 39.9671 67.6441 39.6719C68.0798 39.3768 68.4031 38.9762 68.6139 38.4703H70.7221C70.5394 39.1168 70.2302 39.7 69.7945 40.2201C69.3588 40.726 68.8177 41.1266 68.1712 41.4217C67.5387 41.7169 66.8079 41.8644 65.9787 41.8644ZM76.4232 41.6115C75.7486 41.6115 75.1653 41.506 74.6734 41.2952C74.1815 41.0844 73.802 40.733 73.535 40.2411C73.268 39.7492 73.1344 39.0816 73.1344 38.2384V32.7782H71.3003V30.9863H73.1344L73.3874 28.33H75.2426V30.9863H78.2573V32.7782H75.2426V38.2595C75.2426 38.8638 75.3691 39.2784 75.6221 39.5033C75.8751 39.7141 76.3107 39.8195 76.9291 39.8195H78.1519V41.6115H76.4232ZM88.8009 41.8644C87.7187 41.8644 86.7701 41.6747 85.9549 41.2952C85.1397 40.9017 84.5073 40.3536 84.0575 39.6509C83.6078 38.9481 83.3829 38.1259 83.3829 37.1843H85.5965C85.6106 37.7184 85.7371 38.2103 85.976 38.66C86.229 39.0957 86.5873 39.4471 87.0511 39.7141C87.529 39.9671 88.1123 40.0936 88.8009 40.0936C89.3912 40.0936 89.8972 39.9952 90.3188 39.7984C90.7545 39.6017 91.0848 39.3346 91.3096 38.9973C91.5345 38.646 91.647 38.2454 91.647 37.7957C91.647 37.2757 91.5275 36.847 91.2886 36.5097C91.0496 36.1724 90.7264 35.8983 90.3188 35.6875C89.9253 35.4626 89.4615 35.2659 88.9274 35.0972C88.4074 34.9286 87.8593 34.7459 87.283 34.5491C86.1165 34.1696 85.2451 33.6777 84.6689 33.0734C84.1067 32.469 83.8256 31.682 83.8256 30.7122C83.8256 29.883 84.0224 29.1662 84.4159 28.5619C84.8095 27.9435 85.3576 27.4656 86.0603 27.1283C86.7771 26.777 87.6204 26.6013 88.5901 26.6013C89.5458 26.6013 90.382 26.777 91.0988 27.1283C91.8156 27.4797 92.3778 27.9646 92.7854 28.583C93.1929 29.2014 93.3967 29.9252 93.3967 30.7544H91.1621C91.1621 30.3749 91.0637 30.0025 90.8669 29.6371C90.6702 29.2716 90.375 28.9765 89.9815 28.7516C89.588 28.5127 89.1031 28.3932 88.5269 28.3932C88.049 28.3792 87.6204 28.4565 87.2409 28.6251C86.8614 28.7938 86.5663 29.0397 86.3554 29.363C86.1446 29.6862 86.0392 30.0727 86.0392 30.5225C86.0392 30.9722 86.1306 31.3376 86.3133 31.6187C86.51 31.8858 86.7911 32.1177 87.1566 32.3144C87.522 32.5112 87.9436 32.6939 88.4215 32.8626C88.9134 33.0172 89.4545 33.1928 90.0447 33.3896C90.7756 33.6285 91.4221 33.9237 91.9843 34.275C92.5605 34.6123 93.0102 35.055 93.3335 35.6032C93.6708 36.1372 93.8394 36.8259 93.8394 37.6692C93.8394 38.4 93.6497 39.0816 93.2702 39.7141C92.8908 40.3465 92.3286 40.8666 91.5837 41.2741C90.8388 41.6677 89.9112 41.8644 88.8009 41.8644ZM99.5719 41.6115C98.8972 41.6115 98.314 41.506 97.8221 41.2952C97.3302 41.0844 96.9507 40.733 96.6837 40.2411C96.4166 39.7492 96.2831 39.0816 96.2831 38.2384V32.7782H94.449V30.9863H96.2831L96.5361 28.33H98.3913V30.9863H101.406V32.7782H98.3913V38.2595C98.3913 38.8638 98.5178 39.2784 98.7707 39.5033C99.0237 39.7141 99.4594 39.8195 100.078 39.8195H101.301V41.6115H99.5719ZM106.197 41.8644C105.326 41.8644 104.602 41.7169 104.026 41.4217C103.45 41.1266 103.021 40.733 102.74 40.2411C102.459 39.7352 102.318 39.1941 102.318 38.6179C102.318 37.9151 102.501 37.3178 102.866 36.8259C103.232 36.3199 103.752 35.9335 104.426 35.6664C105.101 35.3994 105.909 35.2659 106.851 35.2659H109.612C109.612 34.6475 109.521 34.1345 109.338 33.7269C109.156 33.3193 108.882 33.0172 108.516 32.8204C108.165 32.6096 107.715 32.5042 107.167 32.5042C106.535 32.5042 105.993 32.6588 105.544 32.968C105.094 33.2631 104.813 33.7058 104.7 34.2961H102.592C102.677 33.5512 102.93 32.9188 103.351 32.3988C103.787 31.8647 104.342 31.4571 105.017 31.176C105.691 30.8809 106.408 30.7333 107.167 30.7333C108.165 30.7333 109.001 30.909 109.676 31.2603C110.35 31.6117 110.856 32.1106 111.194 32.7571C111.545 33.3896 111.721 34.1485 111.721 35.034V41.6115H109.887L109.718 39.8195C109.563 40.1006 109.381 40.3676 109.17 40.6206C108.959 40.8736 108.706 41.0914 108.411 41.2741C108.13 41.4569 107.799 41.5974 107.42 41.6958C107.055 41.8082 106.647 41.8644 106.197 41.8644ZM106.598 40.1568C107.048 40.1568 107.455 40.0655 107.821 39.8828C108.186 39.7 108.495 39.4541 108.748 39.1449C109.015 38.8216 109.212 38.4633 109.338 38.0697C109.479 37.6621 109.556 37.2475 109.57 36.8259V36.7627H107.062C106.457 36.7627 105.965 36.84 105.586 36.9946C105.22 37.1351 104.953 37.3319 104.785 37.5848C104.616 37.8378 104.532 38.133 104.532 38.4703C104.532 38.8216 104.609 39.1238 104.764 39.3768C104.932 39.6157 105.171 39.8055 105.48 39.946C105.79 40.0865 106.162 40.1568 106.598 40.1568ZM113.357 41.6115V30.9863H115.255L115.445 32.989C115.683 32.5112 115.993 32.1106 116.372 31.7874C116.752 31.4501 117.194 31.1901 117.7 31.0074C118.22 30.8247 118.811 30.7333 119.471 30.7333V32.968H118.712C118.277 32.968 117.862 33.0242 117.468 33.1366C117.075 33.235 116.723 33.4107 116.414 33.6637C116.119 33.9166 115.887 34.261 115.719 34.6967C115.55 35.1323 115.466 35.6734 115.466 36.3199V41.6115H113.357ZM124.738 41.6115C124.063 41.6115 123.48 41.506 122.988 41.2952C122.496 41.0844 122.117 40.733 121.85 40.2411C121.583 39.7492 121.449 39.0816 121.449 38.2384V32.7782H119.615V30.9863H121.449L121.702 28.33H123.558V30.9863H126.572V32.7782H123.558V38.2595C123.558 38.8638 123.684 39.2784 123.937 39.5033C124.19 39.7141 124.626 39.8195 125.244 39.8195H126.467V41.6115H124.738ZM132.361 41.8644C131.349 41.8644 130.45 41.6325 129.663 41.1687C128.876 40.7049 128.257 40.0584 127.808 39.2292C127.372 38.4 127.154 37.4373 127.154 36.341C127.154 35.2167 127.372 34.2399 127.808 33.4107C128.257 32.5674 128.876 31.9139 129.663 31.4501C130.45 30.9722 131.363 30.7333 132.403 30.7333C133.443 30.7333 134.336 30.9652 135.081 31.429C135.826 31.8928 136.402 32.5112 136.81 33.2842C137.217 34.0431 137.421 34.8864 137.421 35.814C137.421 35.9545 137.414 36.1091 137.4 36.2778C137.4 36.4324 137.393 36.6081 137.379 36.8048H128.693V35.308H135.313C135.271 34.4226 134.975 33.7339 134.427 33.242C133.879 32.7361 133.198 32.4831 132.382 32.4831C131.806 32.4831 131.279 32.6166 130.801 32.8836C130.323 33.1366 129.937 33.5161 129.642 34.022C129.361 34.514 129.22 35.1394 129.22 35.8983V36.4886C129.22 37.2757 129.361 37.9432 129.642 38.4914C129.937 39.0254 130.323 39.433 130.801 39.7141C131.279 39.9811 131.799 40.1147 132.361 40.1147C133.036 40.1147 133.591 39.9671 134.027 39.6719C134.462 39.3768 134.786 38.9762 134.996 38.4703H137.105C136.922 39.1168 136.613 39.7 136.177 40.2201C135.741 40.726 135.2 41.1266 134.554 41.4217C133.921 41.7169 133.19 41.8644 132.361 41.8644ZM143.431 41.8644C142.419 41.8644 141.527 41.6255 140.754 41.1477C139.981 40.6557 139.377 39.9952 138.941 39.166C138.519 38.3227 138.308 37.367 138.308 36.2989C138.308 35.2167 138.519 34.261 138.941 33.4318C139.377 32.6025 139.981 31.949 140.754 31.4712C141.541 30.9793 142.44 30.7333 143.452 30.7333C144.282 30.7333 145.012 30.902 145.645 31.2393C146.277 31.5625 146.769 32.0263 147.121 32.6307V26.4326H149.229V41.6115H147.331L147.121 39.9671C146.91 40.2903 146.636 40.5995 146.298 40.8947C145.961 41.1758 145.554 41.4077 145.076 41.5904C144.598 41.7731 144.05 41.8644 143.431 41.8644ZM143.769 40.0303C144.429 40.0303 145.012 39.8757 145.518 39.5665C146.024 39.2573 146.411 38.8216 146.678 38.2595C146.959 37.6973 147.099 37.0438 147.099 36.2989C147.099 35.554 146.959 34.9075 146.678 34.3594C146.411 33.7972 146.024 33.3615 145.518 33.0523C145.012 32.729 144.429 32.5674 143.769 32.5674C143.136 32.5674 142.567 32.729 142.061 33.0523C141.555 33.3615 141.161 33.7972 140.88 34.3594C140.599 34.9075 140.459 35.554 140.459 36.2989C140.459 37.0438 140.599 37.6973 140.88 38.2595C141.161 38.8216 141.555 39.2573 142.061 39.5665C142.567 39.8757 143.136 40.0303 143.769 40.0303ZM154.849 35.3502V33.4107H166.613L160.731 27.9294L162.059 26.5802L169.606 33.7691V34.9286L162.059 42.1385L160.731 40.7893L166.571 35.3502H154.849Z" fill="#FEFEFE"/>
</svg>
