<svg width="216" height="68" viewBox="0 0 216 68" fill="none" xmlns="http://www.w3.org/2000/svg">
<rect width="215.685" height="67.7151" rx="33.8576" fill="#FEFEFE"/>
<path d="M63.6545 41.8644C62.2631 41.8644 61.0474 41.5482 60.0074 40.9158C58.9673 40.2833 58.1592 39.3979 57.583 38.2595C57.0068 37.1211 56.7186 35.7929 56.7186 34.275C56.7186 32.7712 57.0068 31.4431 57.583 30.2906C58.1733 29.1381 59.0095 28.2386 60.0917 27.5921C61.188 26.9316 62.481 26.6013 63.9707 26.6013C65.6432 26.6013 67.0416 27.0089 68.166 27.824C69.2903 28.6251 70.0141 29.7425 70.3374 31.176H67.9341C67.7233 30.3609 67.2806 29.7214 66.6059 29.2576C65.9313 28.7797 65.0459 28.5408 63.9497 28.5408C62.9096 28.5408 62.0031 28.7727 61.2301 29.2365C60.4712 29.7003 59.8879 30.3609 59.4803 31.2182C59.0728 32.0755 58.869 33.0945 58.869 34.275C58.869 35.4697 59.0728 36.4956 59.4803 37.353C59.8879 38.2103 60.4641 38.8638 61.209 39.3135C61.9539 39.7633 62.8112 39.9882 63.781 39.9882C65.2708 39.9882 66.3881 39.5595 67.133 38.7022C67.8919 37.8449 68.3346 36.6994 68.4611 35.2659H64.3924V33.6426H70.5904V41.6115H68.6719L68.4822 39.3557C68.1449 39.9038 67.7514 40.3676 67.3016 40.7471C66.866 41.1125 66.353 41.3936 65.7627 41.5904C65.1724 41.7731 64.4697 41.8644 63.6545 41.8644ZM77.0134 41.8644C76.0015 41.8644 75.102 41.6325 74.3149 41.1687C73.5279 40.7049 72.9095 40.0584 72.4597 39.2292C72.024 38.4 71.8062 37.4373 71.8062 36.341C71.8062 35.2167 72.024 34.2399 72.4597 33.4107C72.9095 32.5674 73.5279 31.9139 74.3149 31.4501C75.102 30.9722 76.0155 30.7333 77.0555 30.7333C78.0956 30.7333 78.988 30.9652 79.7329 31.429C80.4778 31.8928 81.054 32.5112 81.4616 33.2842C81.8692 34.0431 82.073 34.8864 82.073 35.814C82.073 35.9545 82.0659 36.1091 82.0519 36.2778C82.0519 36.4324 82.0449 36.6081 82.0308 36.8048H73.3452V35.308H79.9648C79.9226 34.4226 79.6275 33.7339 79.0794 33.242C78.5313 32.7361 77.8496 32.4831 77.0345 32.4831C76.4582 32.4831 75.9312 32.6166 75.4533 32.8836C74.9755 33.1366 74.589 33.5161 74.2938 34.022C74.0127 34.514 73.8722 35.1394 73.8722 35.8983V36.4886C73.8722 37.2757 74.0127 37.9432 74.2938 38.4914C74.589 39.0254 74.9755 39.433 75.4533 39.7141C75.9312 39.9811 76.4512 40.1147 77.0134 40.1147C77.688 40.1147 78.2431 39.9671 78.6788 39.6719C79.1145 39.3768 79.4378 38.9762 79.6486 38.4703H81.7568C81.574 39.1168 81.2648 39.7 80.8292 40.2201C80.3935 40.726 79.8524 41.1266 79.2059 41.4217C78.5734 41.7169 77.8426 41.8644 77.0134 41.8644ZM87.4579 41.6115C86.7832 41.6115 86.2 41.506 85.7081 41.2952C85.2162 41.0844 84.8367 40.733 84.5697 40.2411C84.3026 39.7492 84.1691 39.0816 84.1691 38.2384V32.7782H82.335V30.9863H84.1691L84.4221 28.33H86.2773V30.9863H89.292V32.7782H86.2773V38.2595C86.2773 38.8638 86.4038 39.2784 86.6568 39.5033C86.9097 39.7141 87.3454 39.8195 87.9638 39.8195H89.1866V41.6115H87.4579ZM99.8356 41.8644C98.7534 41.8644 97.8047 41.6747 96.9896 41.2952C96.1744 40.9017 95.542 40.3536 95.0922 39.6509C94.6425 38.9481 94.4176 38.1259 94.4176 37.1843H96.6312C96.6452 37.7184 96.7717 38.2103 97.0107 38.66C97.2636 39.0957 97.622 39.4471 98.0858 39.7141C98.5637 39.9671 99.1469 40.0936 99.8356 40.0936C100.426 40.0936 100.932 39.9952 101.353 39.7984C101.789 39.6017 102.119 39.3346 102.344 38.9973C102.569 38.646 102.682 38.2454 102.682 37.7957C102.682 37.2757 102.562 36.847 102.323 36.5097C102.084 36.1724 101.761 35.8983 101.353 35.6875C100.96 35.4626 100.496 35.2659 99.9621 35.0972C99.4421 34.9286 98.894 34.7459 98.3177 34.5491C97.1512 34.1696 96.2798 33.6777 95.7036 33.0734C95.1414 32.469 94.8603 31.682 94.8603 30.7122C94.8603 29.883 95.0571 29.1662 95.4506 28.5619C95.8441 27.9435 96.3923 27.4656 97.095 27.1283C97.8118 26.777 98.655 26.6013 99.6248 26.6013C100.58 26.6013 101.417 26.777 102.134 27.1283C102.85 27.4797 103.412 27.9646 103.82 28.583C104.228 29.2014 104.431 29.9252 104.431 30.7544H102.197C102.197 30.3749 102.098 30.0025 101.902 29.6371C101.705 29.2716 101.41 28.9765 101.016 28.7516C100.623 28.5127 100.138 28.3932 99.5615 28.3932C99.0837 28.3792 98.655 28.4565 98.2756 28.6251C97.8961 28.7938 97.6009 29.0397 97.3901 29.363C97.1793 29.6862 97.0739 30.0727 97.0739 30.5225C97.0739 30.9722 97.1653 31.3376 97.348 31.6187C97.5447 31.8858 97.8258 32.1177 98.1912 32.3144C98.5567 32.5112 98.9783 32.6939 99.4561 32.8626C99.948 33.0172 100.489 33.1928 101.079 33.3896C101.81 33.6285 102.457 33.9237 103.019 34.275C103.595 34.6123 104.045 35.055 104.368 35.6032C104.705 36.1372 104.874 36.8259 104.874 37.6692C104.874 38.4 104.684 39.0816 104.305 39.7141C103.925 40.3465 103.363 40.8666 102.618 41.2741C101.874 41.6677 100.946 41.8644 99.8356 41.8644ZM110.607 41.6115C109.932 41.6115 109.349 41.506 108.857 41.2952C108.365 41.0844 107.985 40.733 107.718 40.2411C107.451 39.7492 107.318 39.0816 107.318 38.2384V32.7782H105.484V30.9863H107.318L107.571 28.33H109.426V30.9863H112.441V32.7782H109.426V38.2595C109.426 38.8638 109.552 39.2784 109.805 39.5033C110.058 39.7141 110.494 39.8195 111.112 39.8195H112.335V41.6115H110.607ZM117.232 41.8644C116.361 41.8644 115.637 41.7169 115.061 41.4217C114.484 41.1266 114.056 40.733 113.775 40.2411C113.493 39.7352 113.353 39.1941 113.353 38.6179C113.353 37.9151 113.536 37.3178 113.901 36.8259C114.266 36.3199 114.786 35.9335 115.461 35.6664C116.136 35.3994 116.944 35.2659 117.885 35.2659H120.647C120.647 34.6475 120.556 34.1345 120.373 33.7269C120.19 33.3193 119.916 33.0172 119.551 32.8204C119.2 32.6096 118.75 32.5042 118.202 32.5042C117.569 32.5042 117.028 32.6588 116.578 32.968C116.129 33.2631 115.848 33.7058 115.735 34.2961H113.627C113.711 33.5512 113.964 32.9188 114.386 32.3988C114.822 31.8647 115.377 31.4571 116.051 31.176C116.726 30.8809 117.443 30.7333 118.202 30.7333C119.2 30.7333 120.036 30.909 120.71 31.2603C121.385 31.6117 121.891 32.1106 122.228 32.7571C122.58 33.3896 122.755 34.1485 122.755 35.034V41.6115H120.921L120.753 39.8195C120.598 40.1006 120.415 40.3676 120.204 40.6206C119.994 40.8736 119.741 41.0914 119.446 41.2741C119.164 41.4569 118.834 41.5974 118.455 41.6958C118.089 41.8082 117.682 41.8644 117.232 41.8644ZM117.632 40.1568C118.082 40.1568 118.49 40.0655 118.855 39.8828C119.221 39.7 119.53 39.4541 119.783 39.1449C120.05 38.8216 120.247 38.4633 120.373 38.0697C120.514 37.6621 120.591 37.2475 120.605 36.8259V36.7627H118.096C117.492 36.7627 117 36.84 116.621 36.9946C116.255 37.1351 115.988 37.3319 115.819 37.5848C115.651 37.8378 115.566 38.133 115.566 38.4703C115.566 38.8216 115.644 39.1238 115.798 39.3768C115.967 39.6157 116.206 39.8055 116.515 39.946C116.824 40.0865 117.197 40.1568 117.632 40.1568ZM124.392 41.6115V30.9863H126.289L126.479 32.989C126.718 32.5112 127.027 32.1106 127.407 31.7874C127.786 31.4501 128.229 31.1901 128.735 31.0074C129.255 30.8247 129.845 30.7333 130.506 30.7333V32.968H129.747C129.311 32.968 128.897 33.0242 128.503 33.1366C128.11 33.235 127.758 33.4107 127.449 33.6637C127.154 33.9166 126.922 34.261 126.753 34.6967C126.585 35.1323 126.5 35.6734 126.5 36.3199V41.6115H124.392ZM135.773 41.6115C135.098 41.6115 134.515 41.506 134.023 41.2952C133.531 41.0844 133.152 40.733 132.885 40.2411C132.618 39.7492 132.484 39.0816 132.484 38.2384V32.7782H130.65V30.9863H132.484L132.737 28.33H134.592V30.9863H137.607V32.7782H134.592V38.2595C134.592 38.8638 134.719 39.2784 134.972 39.5033C135.225 39.7141 135.66 39.8195 136.279 39.8195H137.501V41.6115H135.773ZM143.396 41.8644C142.384 41.8644 141.485 41.6325 140.697 41.1687C139.91 40.7049 139.292 40.0584 138.842 39.2292C138.407 38.4 138.189 37.4373 138.189 36.341C138.189 35.2167 138.407 34.2399 138.842 33.4107C139.292 32.5674 139.91 31.9139 140.697 31.4501C141.485 30.9722 142.398 30.7333 143.438 30.7333C144.478 30.7333 145.371 30.9652 146.115 31.429C146.86 31.8928 147.437 32.5112 147.844 33.2842C148.252 34.0431 148.456 34.8864 148.456 35.814C148.456 35.9545 148.449 36.1091 148.434 36.2778C148.434 36.4324 148.427 36.6081 148.413 36.8048H139.728V35.308H146.347C146.305 34.4226 146.01 33.7339 145.462 33.242C144.914 32.7361 144.232 32.4831 143.417 32.4831C142.841 32.4831 142.314 32.6166 141.836 32.8836C141.358 33.1366 140.972 33.5161 140.676 34.022C140.395 34.514 140.255 35.1394 140.255 35.8983V36.4886C140.255 37.2757 140.395 37.9432 140.676 38.4914C140.972 39.0254 141.358 39.433 141.836 39.7141C142.314 39.9811 142.834 40.1147 143.396 40.1147C144.071 40.1147 144.626 39.9671 145.061 39.6719C145.497 39.3768 145.82 38.9762 146.031 38.4703H148.139C147.957 39.1168 147.647 39.7 147.212 40.2201C146.776 40.726 146.235 41.1266 145.588 41.4217C144.956 41.7169 144.225 41.8644 143.396 41.8644ZM154.466 41.8644C153.454 41.8644 152.562 41.6255 151.789 41.1477C151.016 40.6557 150.411 39.9952 149.976 39.166C149.554 38.3227 149.343 37.367 149.343 36.2989C149.343 35.2167 149.554 34.261 149.976 33.4318C150.411 32.6025 151.016 31.949 151.789 31.4712C152.576 30.9793 153.475 30.7333 154.487 30.7333C155.316 30.7333 156.047 30.902 156.68 31.2393C157.312 31.5625 157.804 32.0263 158.155 32.6307V26.4326H160.263V41.6115H158.366L158.155 39.9671C157.944 40.2903 157.67 40.5995 157.333 40.8947C156.996 41.1758 156.588 41.4077 156.11 41.5904C155.632 41.7731 155.084 41.8644 154.466 41.8644ZM154.803 40.0303C155.464 40.0303 156.047 39.8757 156.553 39.5665C157.059 39.2573 157.446 38.8216 157.713 38.2595C157.994 37.6973 158.134 37.0438 158.134 36.2989C158.134 35.554 157.994 34.9075 157.713 34.3594C157.446 33.7972 157.059 33.3615 156.553 33.0523C156.047 32.729 155.464 32.5674 154.803 32.5674C154.171 32.5674 153.602 32.729 153.096 33.0523C152.59 33.3615 152.196 33.7972 151.915 34.3594C151.634 34.9075 151.493 35.554 151.493 36.2989C151.493 37.0438 151.634 37.6973 151.915 38.2595C152.196 38.8216 152.59 39.2573 153.096 39.5665C153.602 39.8757 154.171 40.0303 154.803 40.0303Z" fill="#022183"/>
</svg>
